<?xml version="1.0" standalone="no"?>
<!DOCTYPE svg PUBLIC "-//W3C//DTD SVG 20010904//EN"
 "http://www.w3.org/TR/2001/REC-SVG-20010904/DTD/svg10.dtd">
<svg version="1.0" xmlns="http://www.w3.org/2000/svg"
 width="1096.000000pt" height="1096.000000pt" viewBox="0 0 1096.000000 1096.000000"
 preserveAspectRatio="xMidYMid meet">
<metadata>
Created by potrace 1.14, written by Peter Selinger 2001-2017
</metadata>
<g transform="translate(0.000000,1096.000000) scale(0.100000,-0.100000)"
fill="#000000" stroke="none">
<path d="M5656 9982 c-4 -4 -19 -8 -34 -9 -15 -1 -34 -4 -43 -5 -27 -6 -119
-52 -119 -60 0 -12 -27 -9 -42 5 -7 6 -26 18 -43 26 -16 7 -38 17 -48 23 -10
5 -22 6 -27 3 -6 -4 -10 -2 -10 3 0 5 -28 9 -62 10 -61 1 -163 -25 -195 -51
-68 -55 -104 -104 -179 -253 -45 -87 -122 -238 -171 -334 -50 -96 -125 -242
-167 -325 -43 -82 -82 -155 -88 -162 -6 -7 -8 -13 -4 -13 3 0 -8 -23 -24 -50
-17 -28 -30 -57 -30 -65 0 -7 -4 -15 -8 -17 -4 -1 -42 -70 -84 -153 -42 -82
-99 -193 -126 -245 -27 -52 -87 -169 -133 -260 -46 -91 -86 -167 -89 -170 -3
-3 -36 -68 -75 -145 -38 -77 -80 -157 -92 -177 -13 -21 -20 -38 -17 -38 4 0 2
-6 -4 -12 -9 -12 -85 -159 -281 -543 -42 -82 -78 -152 -81 -155 -3 -3 -32 -59
-66 -125 -145 -288 -239 -470 -244 -475 -8 -8 -52 -105 -50 -109 1 -2 -2 -7
-7 -10 -4 -3 -47 -82 -95 -176 -77 -151 -90 -170 -112 -170 -14 -1 -28 -3 -30
-6 -3 -3 -30 -2 -61 1 -30 3 -55 2 -55 -2 0 -5 -9 -4 -19 2 -11 5 -22 6 -25 2
-3 -5 -30 -5 -60 -2 -31 3 -56 2 -56 -2 0 -5 -9 -4 -19 2 -11 5 -22 6 -25 2
-3 -5 -30 -5 -60 -2 -31 3 -56 2 -56 -2 0 -5 -9 -4 -19 2 -11 5 -22 6 -25 2
-3 -5 -30 -5 -60 -2 -31 3 -56 2 -56 -2 0 -5 -9 -4 -19 2 -11 5 -22 6 -25 2
-3 -5 -30 -5 -60 -2 -31 3 -56 2 -56 -2 0 -5 -9 -4 -19 2 -11 5 -22 6 -25 2
-3 -5 -30 -5 -60 -2 -31 3 -56 2 -56 -2 0 -5 -9 -4 -19 2 -12 6 -22 6 -25 1
-4 -5 -22 -5 -43 -1 -20 5 -39 8 -42 8 -3 0 -9 1 -13 2 -5 1 -11 3 -15 4 -5 1
-24 10 -43 19 -65 32 -130 107 -147 172 -9 32 -9 137 0 170 l8 30 -20 -24
c-16 -22 -35 -68 -48 -121 -2 -8 -5 -33 -7 -55 -2 -22 -5 -44 -6 -50 -1 -5 -2
-12 -1 -15 1 -3 4 -23 5 -45 4 -51 25 -126 39 -144 7 -8 12 -17 11 -20 -1 -6
44 -102 174 -371 178 -370 222 -463 222 -471 0 -5 5 -9 10 -9 6 0 10 -7 10
-15 0 -8 9 -30 20 -50 11 -19 17 -35 13 -35 -3 0 1 -8 9 -17 13 -15 26 -40 33
-63 1 -3 31 -67 68 -142 l66 -137 -29 -58 c-16 -32 -33 -63 -38 -69 -5 -6 -13
-21 -17 -35 -4 -13 -16 -36 -27 -51 -11 -16 -16 -28 -11 -28 4 0 4 -4 -2 -8
-14 -10 -35 -49 -35 -66 0 -8 -3 -16 -8 -18 -7 -3 -45 -75 -198 -376 -34 -68
-66 -128 -71 -135 -5 -7 -20 -37 -33 -67 -14 -30 -27 -57 -31 -60 -10 -9 -77
-153 -89 -192 -9 -31 -21 -109 -22 -153 -1 -27 16 -106 33 -155 22 -63 69
-135 143 -219 70 -79 124 -142 166 -192 19 -23 50 -57 68 -76 17 -19 32 -37
32 -39 0 -3 10 -15 23 -28 12 -12 38 -42 57 -65 19 -23 46 -55 60 -70 14 -15
50 -56 80 -91 60 -69 65 -75 126 -146 23 -27 52 -60 64 -74 12 -14 40 -47 63
-74 23 -27 47 -54 52 -60 6 -6 80 -92 165 -191 198 -232 261 -294 335 -329 33
-16 68 -33 78 -38 10 -5 22 -6 27 -3 6 4 10 2 10 -3 0 -5 15 -10 33 -10 17 -1
53 -4 78 -6 25 -2 51 -1 58 3 7 5 -3 8 -21 9 -178 7 -336 211 -296 382 5 19
11 46 14 60 3 13 9 29 13 35 5 5 12 21 16 35 4 14 16 43 26 65 10 22 61 148
114 280 53 132 102 254 110 270 14 33 109 267 111 275 0 3 6 18 12 33 7 16 12
30 12 33 0 2 9 23 19 47 11 23 31 69 44 102 13 33 28 69 32 80 5 11 9 22 10
25 1 3 6 16 12 30 6 14 21 50 33 80 12 30 27 66 33 80 6 14 11 27 12 30 1 3 7
18 13 33 7 16 12 30 12 31 0 2 10 25 22 52 12 27 23 54 24 59 1 6 10 31 21 55
23 51 36 83 37 90 1 3 28 69 60 147 l58 141 39 4 c22 2 46 0 54 -4 7 -5 16 -4
20 2 4 6 13 7 24 1 9 -5 22 -7 28 -3 6 4 61 5 123 2 61 -3 114 -3 116 -1 6 7
69 5 87 -2 10 -4 17 -2 17 4 0 6 7 6 20 -1 12 -6 20 -7 20 -1 0 6 11 6 30 1
16 -5 32 -5 35 0 3 5 18 5 34 0 16 -4 32 -6 35 -2 6 5 69 7 91 2 6 -1 15 -1
20 0 23 4 94 2 103 -4 6 -3 13 -2 17 4 4 7 12 7 23 1 10 -6 23 -6 34 0 12 7
18 6 18 -1 0 -6 5 -8 12 -4 11 7 69 9 93 4 6 -1 15 -1 20 0 23 4 94 2 103 -4
6 -3 13 -2 17 4 4 6 12 7 24 1 9 -5 22 -7 28 -3 6 4 52 5 103 2 50 -3 94 -3
96 -1 4 5 70 5 89 1 6 -1 15 -1 20 0 23 4 94 2 103 -4 6 -3 13 -2 17 4 4 6 12
7 24 1 9 -5 22 -7 28 -3 6 4 88 5 183 2 94 -3 174 -3 176 -1 4 5 70 5 89 1 6
-1 15 -1 20 0 23 4 94 2 103 -4 6 -3 13 -2 17 4 4 6 12 7 24 1 9 -5 22 -7 28
-3 6 4 88 5 183 2 94 -3 174 -3 176 -1 4 5 70 5 89 1 6 -1 15 -1 20 0 23 4 94
2 103 -4 6 -3 13 -2 17 4 4 7 12 7 24 0 10 -5 21 -7 24 -4 3 3 52 6 108 6 87
0 105 -3 116 -18 7 -10 13 -25 13 -34 0 -9 4 -20 9 -25 4 -6 27 -57 50 -115
23 -58 46 -114 51 -125 13 -29 74 -179 76 -185 0 -3 5 -16 11 -30 6 -14 23
-56 38 -95 15 -38 35 -87 46 -108 10 -22 19 -47 19 -57 0 -10 5 -20 10 -22 6
-2 12 -12 14 -23 4 -20 37 -106 61 -160 20 -44 96 -228 99 -240 1 -5 10 -27
19 -49 9 -21 17 -44 17 -50 0 -7 4 -16 9 -22 12 -12 76 -177 73 -186 -1 -5 3
-8 10 -8 6 0 8 -3 5 -6 -3 -4 -1 -16 5 -28 7 -11 13 -23 13 -26 1 -3 7 -18 13
-33 7 -16 12 -30 12 -32 0 -3 11 -28 24 -57 36 -81 156 -380 163 -408 11 -45
6 -171 -8 -187 -1 -2 -2 -6 -3 -10 -7 -30 -19 -53 -27 -53 -5 0 -9 -6 -9 -12
-1 -28 -89 -104 -145 -126 -30 -12 -78 -24 -102 -25 -7 0 -13 -3 -13 -7 0 -3
20 -6 45 -6 25 1 45 4 45 8 0 3 8 4 19 1 10 -2 40 2 67 10 144 44 191 81 374
297 21 25 48 56 60 70 12 14 40 47 63 74 23 27 53 62 67 77 14 15 42 47 62 71
20 24 49 57 65 75 15 18 44 51 63 74 19 23 46 54 60 69 14 16 45 52 70 81 25
29 55 64 67 78 13 14 28 33 35 41 7 8 42 48 78 90 36 41 76 88 90 104 14 16
30 34 35 40 6 6 37 43 70 81 81 94 105 122 138 159 15 17 30 36 35 41 4 6 21
28 37 50 93 123 123 292 77 441 -11 35 -119 254 -133 268 -5 6 -9 18 -9 27 0
10 -3 19 -8 21 -4 2 -43 73 -86 158 -43 85 -87 169 -97 186 -10 17 -16 34 -12
37 3 4 2 7 -4 7 -6 0 -21 25 -34 55 -13 30 -27 55 -31 55 -5 0 -8 6 -8 13 0
11 -40 97 -50 107 -14 14 -100 190 -93 190 4 0 3 4 -3 8 -6 4 -18 21 -27 37
-14 29 -14 34 7 78 13 26 20 47 17 47 -3 0 -1 4 5 8 5 4 18 25 28 47 10 22 35
74 54 115 20 41 36 78 34 83 -1 4 3 7 8 7 6 0 10 4 10 9 0 5 35 80 77 168 42
87 78 160 78 163 5 17 58 126 63 130 4 3 8 10 9 15 1 6 48 107 106 225 57 118
112 239 122 269 20 61 27 179 14 247 -11 55 -58 164 -72 164 -5 0 -4 -7 4 -16
8 -10 13 -44 13 -92 0 -96 -28 -164 -89 -221 -57 -52 -105 -73 -170 -75 -30 0
-55 -5 -55 -9 0 -4 -9 -3 -19 3 -11 5 -22 7 -24 2 -3 -4 -39 -5 -81 -2 -42 3
-76 1 -76 -3 0 -4 -9 -3 -19 3 -11 5 -22 7 -24 2 -3 -4 -39 -5 -81 -2 -42 3
-76 1 -76 -3 0 -4 -9 -3 -19 3 -14 7 -22 7 -26 0 -5 -8 -11 -7 -21 1 -11 9
-14 9 -14 0 0 -8 -5 -9 -19 -1 -11 5 -22 7 -24 2 -3 -4 -39 -5 -81 -2 -42 3
-76 1 -76 -3 0 -4 -9 -3 -19 3 -11 5 -22 7 -24 2 -3 -4 -39 -5 -81 -2 -42 3
-76 1 -76 -3 0 -4 -8 -3 -18 2 -13 7 -23 6 -30 -1 -9 -9 -12 -9 -12 0 0 6 -6
9 -13 6 -8 -3 -48 67 -117 203 -58 115 -107 210 -110 213 -3 3 -30 55 -60 115
-30 61 -63 122 -73 138 -10 15 -16 27 -13 27 4 0 -4 17 -16 38 -13 20 -48 87
-78 147 -30 61 -57 112 -60 115 -5 5 -33 60 -35 70 0 3 -6 14 -12 25 -49 89
-91 175 -85 175 4 0 0 5 -8 10 -8 5 -15 13 -15 17 -1 4 -8 22 -17 38 -9 17
-55 107 -103 200 -241 469 -278 541 -288 553 -5 6 -6 12 -2 12 5 0 2 8 -6 18
-8 9 -34 58 -59 107 -25 50 -47 92 -50 95 -3 3 -52 100 -110 215 -58 116 -109
213 -115 217 -7 5 -7 8 0 8 7 0 7 3 0 8 -5 4 -42 70 -81 147 -72 140 -169 329
-336 655 -50 96 -94 179 -99 185 -5 5 -9 17 -9 26 0 10 -4 19 -8 21 -8 3 -49
87 -50 101 0 5 -8 14 -18 21 -9 7 -14 18 -10 24 4 7 3 12 -2 12 -8 0 -40 59
-38 70 1 11 -64 97 -95 125 -43 39 -119 75 -170 80 -21 2 -43 6 -47 9 -5 3
-12 2 -16 -2z m-196 -2264 c7 -18 16 -42 21 -53 34 -76 191 -472 192 -482 0
-7 4 -13 8 -13 4 0 10 -12 13 -26 4 -15 29 -79 55 -143 53 -126 62 -151 67
-166 3 -9 159 -393 183 -450 5 -11 13 -31 18 -45 6 -14 15 -36 21 -50 6 -14
22 -52 35 -85 13 -33 28 -69 32 -80 5 -11 7 -23 7 -27 -1 -5 2 -8 8 -8 5 0 10
-7 10 -15 0 -9 7 -32 17 -53 9 -20 17 -39 17 -42 4 -18 71 -177 79 -187 5 -7
6 -13 3 -13 -4 0 -2 -10 5 -21 10 -20 9 -21 -10 -16 -11 3 -21 1 -21 -4 0 -6
-8 -5 -19 1 -14 7 -22 7 -26 0 -5 -8 -11 -7 -21 1 -11 9 -14 9 -14 0 0 -8 -5
-9 -19 -1 -11 5 -22 7 -24 2 -3 -4 -39 -5 -81 -2 -42 3 -76 1 -76 -3 0 -4 -9
-3 -19 3 -11 5 -22 7 -24 2 -3 -4 -39 -5 -81 -2 -42 3 -76 1 -76 -3 0 -4 -9
-3 -19 3 -14 7 -22 7 -26 0 -5 -8 -11 -7 -21 1 -11 9 -14 9 -14 0 0 -8 -5 -9
-19 -1 -11 5 -22 7 -24 2 -3 -4 -39 -5 -81 -2 -42 3 -76 1 -76 -3 0 -4 -9 -3
-19 3 -11 5 -22 7 -24 2 -3 -4 -39 -5 -81 -2 -42 3 -76 1 -76 -3 0 -4 -9 -3
-19 3 -14 7 -22 7 -26 0 -5 -8 -11 -7 -21 1 -11 9 -14 9 -14 0 0 -8 -5 -9 -19
-1 -12 6 -22 6 -25 1 -3 -5 -21 -5 -41 -1 -21 5 -35 4 -35 -1 0 -6 -8 -5 -19
1 -11 5 -22 6 -25 2 -3 -5 -30 -5 -60 -2 -31 3 -56 2 -56 -2 0 -5 -9 -4 -19 2
-11 5 -22 6 -25 2 -3 -5 -30 -5 -60 -2 -31 3 -56 2 -56 -2 0 -5 -9 -4 -19 2
-11 5 -22 6 -25 2 -6 -11 -64 -3 -72 9 -3 5 0 9 5 9 6 0 10 3 9 8 0 4 2 16 7
27 4 11 30 73 57 137 26 65 48 119 48 122 0 2 8 21 17 42 9 22 17 41 18 44 1
8 69 173 99 242 9 21 23 56 32 79 8 23 19 48 25 56 6 7 9 13 6 13 -3 0 15 48
40 108 24 59 46 112 47 117 2 6 8 21 13 35 6 14 11 28 12 33 0 4 10 24 21 44
11 21 20 46 20 55 0 10 5 18 10 18 6 0 9 3 8 8 -2 4 6 27 16 52 11 25 20 47
20 50 1 7 53 134 77 187 11 24 19 46 19 49 0 3 6 20 14 37 8 18 45 106 82 197
36 91 71 176 77 190 6 14 10 28 9 33 -1 4 2 7 7 7 5 0 14 -15 21 -32z"/>
</g>
</svg>
