<svg width="137" height="117" viewBox="0 0 137 117" fill="none" xmlns="http://www.w3.org/2000/svg">
<path d="M35.3381 110.141L20.3886 92.836C18.658 90.8329 18.3828 87.9549 19.7017 85.66L61.4889 4.50731C62.6128 2.3245 65.371 1.5818 67.439 2.90509L73.7111 6.9183C75.4018 8.00012 76.0809 10.1336 75.3267 11.9937L37.0145 106.477C35.7291 109.647 38.626 112.919 41.9281 112.027L41.6971 112.089C39.3793 112.715 36.9077 111.958 35.3381 110.141Z" fill="#007ACC"/>
<path d="M100.715 110.141L115.664 92.836C117.395 90.8329 117.67 87.9549 116.351 85.66L74.5638 4.50731C73.4398 2.3245 70.6817 1.5818 68.6137 2.90509L62.3416 6.9183C60.6509 8.00012 59.9718 10.1336 60.726 11.9937L99.0382 106.477C100.324 109.647 97.4267 112.919 94.1246 112.027L94.3555 112.089C96.6734 112.715 99.145 111.958 100.715 110.141Z" fill="#007ACC"/>
<path d="M18.616 56.1078C17.4683 53.7221 17.9538 50.8719 19.8257 49C17.5193 51.3064 19.1528 55.25 22.4145 55.25L113.07 55.25C116.332 55.25 117.965 51.3064 115.659 49C117.531 50.8719 118.016 53.7221 116.869 56.1078L106.962 76.7087C105.921 78.8734 103.731 80.25 101.329 80.25L34.1552 80.25C31.7532 80.25 29.5637 78.8734 28.5227 76.7086L18.616 56.1078Z" fill="#1F9CF0"/>
</svg>
